<svg width="7267" height="5095" viewBox="0 0 7267 5095" fill="none" xmlns="http://www.w3.org/2000/svg">
<path d="M7245.92 2444.75C7235.33 2419.6 6978.87 1821.4 6408.73 1221.91C5649.04 423.137 4689.52 0.98584 3633.41 0.98584C2577.3 0.98584 1617.77 423.137 858.087 1221.91C287.945 1821.4 30.2755 2420.56 20.8892 2444.75C7.11651 2477.33 0 2512.58 0 2548.22C0 2583.87 7.11651 2619.12 20.8892 2651.69C31.4866 2676.84 287.945 3274.73 858.087 3874.21C1617.77 4672.67 2577.3 5094.82 3633.41 5094.82C4689.52 5094.82 5649.04 4672.67 6408.73 3874.21C6978.87 3274.73 7235.33 2676.84 7245.92 2651.69C7259.7 2619.12 7266.81 2583.87 7266.81 2548.22C7266.81 2512.58 7259.7 2477.33 7245.92 2444.75ZM3633.41 4585.44C2701.44 4585.44 1887.25 4229.19 1213.25 3526.88C936.704 3237.7 701.423 2907.96 514.73 2547.9C701.373 2187.81 936.659 1858.06 1213.25 1568.93C1887.25 866.62 2701.44 510.369 3633.41 510.369C4565.38 510.369 5379.56 866.62 6053.56 1568.93C6330.65 1857.99 6566.44 2187.74 6753.6 2547.9C6535.29 2976.42 5584.24 4585.44 3633.41 4585.44Z" fill="#204ECF"/>
<path d="M4276.94 1098.56C4832.81 1345.07 5220.56 1901.76 5220.56 2549.01C5220.56 3424.88 4510.52 4134.91 3634.65 4134.91C3456.54 4134.91 3285.28 4105.55 3125.46 4051.4L3348.18 3798.11C3440.29 3819.15 3536.17 3830.26 3634.65 3830.26C4342.27 3830.26 4915.9 3256.62 4915.9 2549.01C4915.9 2030.29 4607.65 1583.56 4164.33 1382.02L4276.94 1098.56ZM3634.65 963.102C3790.78 963.102 3941.65 985.666 4084.16 1027.71L3850.18 1285.81C3780.11 1273.94 3708.1 1267.75 3634.65 1267.75C2927.03 1267.75 2353.4 1841.39 2353.4 2549.01C2353.4 3037.67 2626.96 3462.44 3029.3 3678.52L2926.73 3968.53C2406.21 3708.44 2048.74 3170.47 2048.74 2549.01C2048.74 1673.14 2758.78 963.102 3634.65 963.102ZM3610.77 2298.75H4431.4L3214.6 3679.67L3571.15 2666.61H2841.08L3944.68 1449.82L3610.77 2298.75Z" fill="#F7931A"/>
</svg>
